<mxfile host="app.diagrams.net" modified="2021-04-20T19:03:46.665Z" agent="5.0 (Macintosh; Intel Mac OS X 11_0_1) AppleWebKit/537.36 (KHTML, like Gecko) Chrome/89.0.4389.114 Safari/537.36" etag="jzOloUlMRR3RCwauEgoL" version="14.5.3" type="github">
  <diagram id="Sy9PAYsNetrF9oGQ5FYd" name="Page-1">
    <mxGraphModel dx="1224" dy="662" grid="1" gridSize="10" guides="1" tooltips="1" connect="1" arrows="1" fold="1" page="1" pageScale="1" pageWidth="850" pageHeight="1100" math="0" shadow="0">
      <root>
        <mxCell id="0" />
        <mxCell id="1" parent="0" />
        <mxCell id="Vf5myFhJFyKM3w_SsNLf-7" value="" style="rounded=0;whiteSpace=wrap;html=1;fillColor=none;" vertex="1" parent="1">
          <mxGeometry x="10" y="120" width="340" height="110" as="geometry" />
        </mxCell>
        <mxCell id="Vf5myFhJFyKM3w_SsNLf-1" value="widget 1" style="rounded=0;whiteSpace=wrap;html=1;fillColor=#d5e8d4;strokeColor=#82b366;" vertex="1" parent="1">
          <mxGeometry x="40" y="160" width="120" height="60" as="geometry" />
        </mxCell>
        <mxCell id="Vf5myFhJFyKM3w_SsNLf-2" value="widget 1" style="rounded=0;whiteSpace=wrap;html=1;fillColor=#d5e8d4;strokeColor=#82b366;" vertex="1" parent="1">
          <mxGeometry x="200" y="160" width="120" height="60" as="geometry" />
        </mxCell>
        <mxCell id="Vf5myFhJFyKM3w_SsNLf-3" value="widget 1" style="rounded=0;whiteSpace=wrap;html=1;fillColor=#f8cecc;strokeColor=#b85450;" vertex="1" parent="1">
          <mxGeometry x="40" y="280" width="120" height="60" as="geometry" />
        </mxCell>
        <mxCell id="Vf5myFhJFyKM3w_SsNLf-4" value="widget 1" style="rounded=0;whiteSpace=wrap;html=1;fillColor=#f8cecc;strokeColor=#b85450;" vertex="1" parent="1">
          <mxGeometry x="200" y="280" width="120" height="60" as="geometry" />
        </mxCell>
        <mxCell id="Vf5myFhJFyKM3w_SsNLf-5" value="widget 1" style="rounded=0;whiteSpace=wrap;html=1;fillColor=#f8cecc;strokeColor=#b85450;" vertex="1" parent="1">
          <mxGeometry x="40" y="400" width="120" height="60" as="geometry" />
        </mxCell>
        <mxCell id="Vf5myFhJFyKM3w_SsNLf-6" value="widget 1" style="rounded=0;whiteSpace=wrap;html=1;fillColor=#f8cecc;strokeColor=#b85450;" vertex="1" parent="1">
          <mxGeometry x="200" y="400" width="120" height="60" as="geometry" />
        </mxCell>
        <mxCell id="Vf5myFhJFyKM3w_SsNLf-8" value="" style="rounded=0;whiteSpace=wrap;html=1;fillColor=none;" vertex="1" parent="1">
          <mxGeometry x="400" y="135" width="340" height="110" as="geometry" />
        </mxCell>
        <mxCell id="Vf5myFhJFyKM3w_SsNLf-9" value="widget 1" style="rounded=0;whiteSpace=wrap;html=1;fillColor=#d5e8d4;strokeColor=#82b366;" vertex="1" parent="1">
          <mxGeometry x="420" y="160" width="120" height="60" as="geometry" />
        </mxCell>
        <mxCell id="Vf5myFhJFyKM3w_SsNLf-10" value="widget 1" style="rounded=0;whiteSpace=wrap;html=1;fillColor=#d5e8d4;strokeColor=#82b366;" vertex="1" parent="1">
          <mxGeometry x="580" y="160" width="120" height="60" as="geometry" />
        </mxCell>
        <mxCell id="Vf5myFhJFyKM3w_SsNLf-11" value="widget 1" style="rounded=0;whiteSpace=wrap;html=1;fillColor=#fff2cc;strokeColor=#d6b656;" vertex="1" parent="1">
          <mxGeometry x="420" y="280" width="120" height="60" as="geometry" />
        </mxCell>
        <mxCell id="Vf5myFhJFyKM3w_SsNLf-12" value="widget 1" style="rounded=0;whiteSpace=wrap;html=1;fillColor=#fff2cc;strokeColor=#d6b656;" vertex="1" parent="1">
          <mxGeometry x="580" y="280" width="120" height="60" as="geometry" />
        </mxCell>
        <mxCell id="Vf5myFhJFyKM3w_SsNLf-13" value="widget 1" style="rounded=0;whiteSpace=wrap;html=1;fillColor=#f8cecc;strokeColor=#b85450;" vertex="1" parent="1">
          <mxGeometry x="420" y="400" width="120" height="60" as="geometry" />
        </mxCell>
        <mxCell id="Vf5myFhJFyKM3w_SsNLf-14" value="widget 1" style="rounded=0;whiteSpace=wrap;html=1;fillColor=#f8cecc;strokeColor=#b85450;" vertex="1" parent="1">
          <mxGeometry x="580" y="400" width="120" height="60" as="geometry" />
        </mxCell>
        <mxCell id="Vf5myFhJFyKM3w_SsNLf-15" value="" style="rounded=0;whiteSpace=wrap;html=1;fillColor=none;" vertex="1" parent="1">
          <mxGeometry x="800" y="200" width="340" height="110" as="geometry" />
        </mxCell>
        <mxCell id="Vf5myFhJFyKM3w_SsNLf-16" value="widget 1" style="rounded=0;whiteSpace=wrap;html=1;fillColor=#d5e8d4;strokeColor=#82b366;" vertex="1" parent="1">
          <mxGeometry x="820" y="160" width="120" height="60" as="geometry" />
        </mxCell>
        <mxCell id="Vf5myFhJFyKM3w_SsNLf-17" value="widget 1" style="rounded=0;whiteSpace=wrap;html=1;fillColor=#d5e8d4;strokeColor=#82b366;" vertex="1" parent="1">
          <mxGeometry x="980" y="160" width="120" height="60" as="geometry" />
        </mxCell>
        <mxCell id="Vf5myFhJFyKM3w_SsNLf-18" value="widget 1" style="rounded=0;whiteSpace=wrap;html=1;fillColor=#d5e8d4;strokeColor=#82b366;" vertex="1" parent="1">
          <mxGeometry x="820" y="280" width="120" height="60" as="geometry" />
        </mxCell>
        <mxCell id="Vf5myFhJFyKM3w_SsNLf-19" value="widget 1" style="rounded=0;whiteSpace=wrap;html=1;fillColor=#d5e8d4;strokeColor=#82b366;" vertex="1" parent="1">
          <mxGeometry x="980" y="280" width="120" height="60" as="geometry" />
        </mxCell>
        <mxCell id="Vf5myFhJFyKM3w_SsNLf-20" value="widget 1" style="rounded=0;whiteSpace=wrap;html=1;fillColor=#f8cecc;strokeColor=#b85450;" vertex="1" parent="1">
          <mxGeometry x="820" y="400" width="120" height="60" as="geometry" />
        </mxCell>
        <mxCell id="Vf5myFhJFyKM3w_SsNLf-21" value="widget 1" style="rounded=0;whiteSpace=wrap;html=1;fillColor=#f8cecc;strokeColor=#b85450;" vertex="1" parent="1">
          <mxGeometry x="980" y="400" width="120" height="60" as="geometry" />
        </mxCell>
        <mxCell id="Vf5myFhJFyKM3w_SsNLf-29" value="/data_api?params" style="edgeStyle=none;rounded=0;orthogonalLoop=1;jettySize=auto;html=1;entryX=0;entryY=0.25;entryDx=0;entryDy=0;" edge="1" parent="1" source="Vf5myFhJFyKM3w_SsNLf-22" target="Vf5myFhJFyKM3w_SsNLf-28">
          <mxGeometry x="-0.1643" y="17" relative="1" as="geometry">
            <mxPoint as="offset" />
          </mxGeometry>
        </mxCell>
        <mxCell id="Vf5myFhJFyKM3w_SsNLf-22" value="widget 1" style="rounded=0;whiteSpace=wrap;html=1;" vertex="1" parent="1">
          <mxGeometry x="220" y="640" width="120" height="60" as="geometry" />
        </mxCell>
        <mxCell id="Vf5myFhJFyKM3w_SsNLf-27" style="edgeStyle=none;rounded=0;orthogonalLoop=1;jettySize=auto;html=1;entryX=0;entryY=0.5;entryDx=0;entryDy=0;" edge="1" parent="1" source="Vf5myFhJFyKM3w_SsNLf-23" target="Vf5myFhJFyKM3w_SsNLf-22">
          <mxGeometry relative="1" as="geometry" />
        </mxCell>
        <mxCell id="Vf5myFhJFyKM3w_SsNLf-23" value="Company" style="text;html=1;strokeColor=none;fillColor=none;align=center;verticalAlign=middle;whiteSpace=wrap;rounded=0;" vertex="1" parent="1">
          <mxGeometry x="80" y="640" width="60" height="20" as="geometry" />
        </mxCell>
        <mxCell id="Vf5myFhJFyKM3w_SsNLf-26" style="rounded=0;orthogonalLoop=1;jettySize=auto;html=1;entryX=0;entryY=0.75;entryDx=0;entryDy=0;" edge="1" parent="1" source="Vf5myFhJFyKM3w_SsNLf-24" target="Vf5myFhJFyKM3w_SsNLf-22">
          <mxGeometry relative="1" as="geometry" />
        </mxCell>
        <mxCell id="Vf5myFhJFyKM3w_SsNLf-24" value="Filters" style="text;html=1;strokeColor=none;fillColor=none;align=center;verticalAlign=middle;whiteSpace=wrap;rounded=0;" vertex="1" parent="1">
          <mxGeometry x="80" y="710" width="60" height="20" as="geometry" />
        </mxCell>
        <mxCell id="Vf5myFhJFyKM3w_SsNLf-30" value="JSON data" style="edgeStyle=none;rounded=0;orthogonalLoop=1;jettySize=auto;html=1;entryX=1;entryY=0.75;entryDx=0;entryDy=0;" edge="1" parent="1" source="Vf5myFhJFyKM3w_SsNLf-28" target="Vf5myFhJFyKM3w_SsNLf-22">
          <mxGeometry x="0.0857" y="17" relative="1" as="geometry">
            <mxPoint as="offset" />
          </mxGeometry>
        </mxCell>
        <mxCell id="Vf5myFhJFyKM3w_SsNLf-28" value="API" style="rounded=0;whiteSpace=wrap;html=1;fillColor=none;" vertex="1" parent="1">
          <mxGeometry x="580" y="650" width="120" height="60" as="geometry" />
        </mxCell>
      </root>
    </mxGraphModel>
  </diagram>
</mxfile>
